<mxfile host="app.diagrams.net" modified="2022-02-25T13:43:56.722Z" agent="5.0 (Windows NT 10.0; Win64; x64) AppleWebKit/537.36 (KHTML, like Gecko) Chrome/98.0.4758.102 Safari/537.36" etag="JR0FD073DBIaL-Gk4x4D" version="16.6.1" type="github">
  <diagram id="3b7zyBsEo7-Uq_8gr8gD" name="Page-1">
    <mxGraphModel dx="2523" dy="1996" grid="1" gridSize="10" guides="1" tooltips="1" connect="1" arrows="1" fold="1" page="1" pageScale="1" pageWidth="850" pageHeight="1100" math="0" shadow="0">
      <root>
        <mxCell id="0" />
        <mxCell id="1" parent="0" />
        <mxCell id="tC24F0ibOgKhYHNWl2Ua-15" style="edgeStyle=orthogonalEdgeStyle;orthogonalLoop=1;jettySize=auto;html=1;endArrow=open;endFill=0;curved=1;entryX=0;entryY=0.5;entryDx=0;entryDy=0;" edge="1" parent="1" source="tC24F0ibOgKhYHNWl2Ua-1" target="tC24F0ibOgKhYHNWl2Ua-10">
          <mxGeometry relative="1" as="geometry" />
        </mxCell>
        <mxCell id="tC24F0ibOgKhYHNWl2Ua-16" style="edgeStyle=entityRelationEdgeStyle;orthogonalLoop=1;jettySize=auto;html=1;entryX=0;entryY=0.5;entryDx=0;entryDy=0;endArrow=open;endFill=0;curved=1;" edge="1" parent="1" source="tC24F0ibOgKhYHNWl2Ua-1" target="tC24F0ibOgKhYHNWl2Ua-8">
          <mxGeometry relative="1" as="geometry">
            <mxPoint x="90" y="430" as="sourcePoint" />
          </mxGeometry>
        </mxCell>
        <mxCell id="tC24F0ibOgKhYHNWl2Ua-27" style="edgeStyle=entityRelationEdgeStyle;curved=1;orthogonalLoop=1;jettySize=auto;html=1;endArrow=open;endFill=0;" edge="1" parent="1" source="tC24F0ibOgKhYHNWl2Ua-1" target="tC24F0ibOgKhYHNWl2Ua-11">
          <mxGeometry relative="1" as="geometry" />
        </mxCell>
        <mxCell id="tC24F0ibOgKhYHNWl2Ua-29" style="edgeStyle=entityRelationEdgeStyle;curved=1;orthogonalLoop=1;jettySize=auto;html=1;endArrow=open;endFill=0;" edge="1" parent="1" source="tC24F0ibOgKhYHNWl2Ua-1" target="tC24F0ibOgKhYHNWl2Ua-12">
          <mxGeometry relative="1" as="geometry" />
        </mxCell>
        <mxCell id="tC24F0ibOgKhYHNWl2Ua-30" style="edgeStyle=entityRelationEdgeStyle;curved=1;orthogonalLoop=1;jettySize=auto;html=1;endArrow=open;endFill=0;" edge="1" parent="1" source="tC24F0ibOgKhYHNWl2Ua-1" target="tC24F0ibOgKhYHNWl2Ua-14">
          <mxGeometry relative="1" as="geometry" />
        </mxCell>
        <mxCell id="tC24F0ibOgKhYHNWl2Ua-31" style="edgeStyle=entityRelationEdgeStyle;curved=1;orthogonalLoop=1;jettySize=auto;html=1;endArrow=open;endFill=0;" edge="1" parent="1" source="tC24F0ibOgKhYHNWl2Ua-1" target="tC24F0ibOgKhYHNWl2Ua-4">
          <mxGeometry relative="1" as="geometry" />
        </mxCell>
        <mxCell id="tC24F0ibOgKhYHNWl2Ua-32" style="edgeStyle=entityRelationEdgeStyle;curved=1;orthogonalLoop=1;jettySize=auto;html=1;entryX=0;entryY=0.5;entryDx=0;entryDy=0;endArrow=open;endFill=0;" edge="1" parent="1" source="tC24F0ibOgKhYHNWl2Ua-1" target="tC24F0ibOgKhYHNWl2Ua-5">
          <mxGeometry relative="1" as="geometry" />
        </mxCell>
        <mxCell id="tC24F0ibOgKhYHNWl2Ua-33" style="edgeStyle=entityRelationEdgeStyle;curved=1;orthogonalLoop=1;jettySize=auto;html=1;entryX=0;entryY=0.5;entryDx=0;entryDy=0;endArrow=open;endFill=0;" edge="1" parent="1" source="tC24F0ibOgKhYHNWl2Ua-34" target="tC24F0ibOgKhYHNWl2Ua-7">
          <mxGeometry relative="1" as="geometry" />
        </mxCell>
        <mxCell id="tC24F0ibOgKhYHNWl2Ua-36" style="edgeStyle=entityRelationEdgeStyle;curved=1;orthogonalLoop=1;jettySize=auto;html=1;endArrow=open;endFill=0;" edge="1" parent="1" source="tC24F0ibOgKhYHNWl2Ua-1" target="tC24F0ibOgKhYHNWl2Ua-9">
          <mxGeometry relative="1" as="geometry" />
        </mxCell>
        <mxCell id="tC24F0ibOgKhYHNWl2Ua-69" style="edgeStyle=entityRelationEdgeStyle;curved=1;orthogonalLoop=1;jettySize=auto;html=1;entryX=0;entryY=0.5;entryDx=0;entryDy=0;startArrow=none;startFill=0;endArrow=open;endFill=0;" edge="1" parent="1" source="tC24F0ibOgKhYHNWl2Ua-1" target="tC24F0ibOgKhYHNWl2Ua-68">
          <mxGeometry relative="1" as="geometry" />
        </mxCell>
        <mxCell id="tC24F0ibOgKhYHNWl2Ua-70" style="edgeStyle=entityRelationEdgeStyle;curved=1;orthogonalLoop=1;jettySize=auto;html=1;startArrow=none;startFill=0;endArrow=open;endFill=0;" edge="1" parent="1" source="tC24F0ibOgKhYHNWl2Ua-1" target="tC24F0ibOgKhYHNWl2Ua-67">
          <mxGeometry relative="1" as="geometry" />
        </mxCell>
        <mxCell id="tC24F0ibOgKhYHNWl2Ua-82" value="" style="edgeStyle=entityRelationEdgeStyle;curved=1;orthogonalLoop=1;jettySize=auto;html=1;startArrow=none;startFill=0;endArrow=open;endFill=0;entryX=0;entryY=0.5;entryDx=0;entryDy=0;" edge="1" parent="1" source="tC24F0ibOgKhYHNWl2Ua-1" target="tC24F0ibOgKhYHNWl2Ua-83">
          <mxGeometry relative="1" as="geometry">
            <mxPoint x="234.99999999999955" y="-350" as="targetPoint" />
          </mxGeometry>
        </mxCell>
        <mxCell id="tC24F0ibOgKhYHNWl2Ua-1" value="Пользователь" style="shape=umlActor;verticalLabelPosition=bottom;verticalAlign=top;html=1;outlineConnect=0;labelPosition=center;align=center;" vertex="1" parent="1">
          <mxGeometry x="90" y="400" width="30" height="60" as="geometry" />
        </mxCell>
        <mxCell id="tC24F0ibOgKhYHNWl2Ua-4" value="Создать канал" style="ellipse;whiteSpace=wrap;html=1;" vertex="1" parent="1">
          <mxGeometry x="235" y="80" width="120" height="80" as="geometry" />
        </mxCell>
        <mxCell id="tC24F0ibOgKhYHNWl2Ua-5" value="Подписаться на канал" style="ellipse;whiteSpace=wrap;html=1;" vertex="1" parent="1">
          <mxGeometry x="235" y="-30" width="120" height="80" as="geometry" />
        </mxCell>
        <mxCell id="tC24F0ibOgKhYHNWl2Ua-6" value="Выложить видео на&amp;nbsp; канале" style="ellipse;whiteSpace=wrap;html=1;" vertex="1" parent="1">
          <mxGeometry x="240" y="1060" width="120" height="80" as="geometry" />
        </mxCell>
        <mxCell id="tC24F0ibOgKhYHNWl2Ua-7" value="Запустить стрим на&amp;nbsp; канале" style="ellipse;whiteSpace=wrap;html=1;" vertex="1" parent="1">
          <mxGeometry x="235" y="920" width="120" height="80" as="geometry" />
        </mxCell>
        <mxCell id="tC24F0ibOgKhYHNWl2Ua-8" value="Оставить комментарий под видео/стримом" style="ellipse;whiteSpace=wrap;html=1;" vertex="1" parent="1">
          <mxGeometry x="235" y="370" width="120" height="80" as="geometry" />
        </mxCell>
        <mxCell id="tC24F0ibOgKhYHNWl2Ua-9" value="Оценить видео или стрим по шкале от 1 до 5" style="ellipse;whiteSpace=wrap;html=1;" vertex="1" parent="1">
          <mxGeometry x="235" y="570" width="120" height="80" as="geometry" />
        </mxCell>
        <mxCell id="tC24F0ibOgKhYHNWl2Ua-10" value="Поставить лайк комментарию" style="ellipse;whiteSpace=wrap;html=1;" vertex="1" parent="1">
          <mxGeometry x="235" y="280" width="120" height="80" as="geometry" />
        </mxCell>
        <mxCell id="tC24F0ibOgKhYHNWl2Ua-41" value="" style="edgeStyle=entityRelationEdgeStyle;curved=1;orthogonalLoop=1;jettySize=auto;html=1;endArrow=none;endFill=0;startArrow=open;startFill=0;dashed=1;" edge="1" parent="1" source="tC24F0ibOgKhYHNWl2Ua-11" target="tC24F0ibOgKhYHNWl2Ua-40">
          <mxGeometry relative="1" as="geometry" />
        </mxCell>
        <mxCell id="tC24F0ibOgKhYHNWl2Ua-47" value="" style="edgeStyle=entityRelationEdgeStyle;curved=1;orthogonalLoop=1;jettySize=auto;html=1;dashed=1;startArrow=none;startFill=0;endArrow=open;endFill=0;" edge="1" parent="1" source="tC24F0ibOgKhYHNWl2Ua-11" target="tC24F0ibOgKhYHNWl2Ua-46">
          <mxGeometry relative="1" as="geometry" />
        </mxCell>
        <mxCell id="tC24F0ibOgKhYHNWl2Ua-11" value="Пожаловаться на комментарий/стрим/видео" style="ellipse;whiteSpace=wrap;html=1;" vertex="1" parent="1">
          <mxGeometry x="230" y="680" width="120" height="80" as="geometry" />
        </mxCell>
        <mxCell id="tC24F0ibOgKhYHNWl2Ua-12" value="Подать заявку на получение роли модератора" style="ellipse;whiteSpace=wrap;html=1;" vertex="1" parent="1">
          <mxGeometry x="235" y="180" width="120" height="80" as="geometry" />
        </mxCell>
        <mxCell id="tC24F0ibOgKhYHNWl2Ua-14" value="Задонатить стримеру" style="ellipse;whiteSpace=wrap;html=1;" vertex="1" parent="1">
          <mxGeometry x="235" y="470" width="120" height="80" as="geometry" />
        </mxCell>
        <mxCell id="tC24F0ibOgKhYHNWl2Ua-20" style="edgeStyle=entityRelationEdgeStyle;curved=1;orthogonalLoop=1;jettySize=auto;html=1;entryX=0;entryY=0.5;entryDx=0;entryDy=0;endArrow=open;endFill=0;" edge="1" parent="1" source="tC24F0ibOgKhYHNWl2Ua-17" target="tC24F0ibOgKhYHNWl2Ua-18">
          <mxGeometry relative="1" as="geometry" />
        </mxCell>
        <mxCell id="tC24F0ibOgKhYHNWl2Ua-23" style="edgeStyle=entityRelationEdgeStyle;curved=1;orthogonalLoop=1;jettySize=auto;html=1;entryX=0;entryY=0.5;entryDx=0;entryDy=0;endArrow=open;endFill=0;" edge="1" parent="1" source="tC24F0ibOgKhYHNWl2Ua-17" target="tC24F0ibOgKhYHNWl2Ua-22">
          <mxGeometry relative="1" as="geometry" />
        </mxCell>
        <mxCell id="tC24F0ibOgKhYHNWl2Ua-17" value="Модератор" style="shape=umlActor;verticalLabelPosition=bottom;verticalAlign=top;html=1;outlineConnect=0;labelPosition=center;align=center;" vertex="1" parent="1">
          <mxGeometry x="66" y="1550" width="30" height="60" as="geometry" />
        </mxCell>
        <mxCell id="tC24F0ibOgKhYHNWl2Ua-18" value="Получить список&amp;nbsp; жалоб" style="ellipse;whiteSpace=wrap;html=1;" vertex="1" parent="1">
          <mxGeometry x="240" y="1600" width="120" height="80" as="geometry" />
        </mxCell>
        <mxCell id="tC24F0ibOgKhYHNWl2Ua-22" value="Забанить пользователя/видео/стрим/канал" style="ellipse;whiteSpace=wrap;html=1;" vertex="1" parent="1">
          <mxGeometry x="240" y="1470" width="120" height="80" as="geometry" />
        </mxCell>
        <mxCell id="tC24F0ibOgKhYHNWl2Ua-25" value="Функциональные возможности модератора может получить пользователь после принятия заявки на модераторство, при этом пользователь не теряет свои функциональные возможности" style="shape=note;whiteSpace=wrap;html=1;backgroundOutline=1;darkOpacity=0.05;" vertex="1" parent="1">
          <mxGeometry x="-194" y="1370" width="220" height="160" as="geometry" />
        </mxCell>
        <mxCell id="tC24F0ibOgKhYHNWl2Ua-26" value="" style="endArrow=none;dashed=1;html=1;curved=1;exitX=1;exitY=1;exitDx=0;exitDy=0;exitPerimeter=0;entryX=0.25;entryY=0.1;entryDx=0;entryDy=0;entryPerimeter=0;" edge="1" parent="1" source="tC24F0ibOgKhYHNWl2Ua-25" target="tC24F0ibOgKhYHNWl2Ua-17">
          <mxGeometry width="50" height="50" relative="1" as="geometry">
            <mxPoint x="26" y="1510" as="sourcePoint" />
            <mxPoint x="436" y="1430" as="targetPoint" />
          </mxGeometry>
        </mxCell>
        <mxCell id="tC24F0ibOgKhYHNWl2Ua-35" style="edgeStyle=entityRelationEdgeStyle;curved=1;orthogonalLoop=1;jettySize=auto;html=1;entryX=0;entryY=0.5;entryDx=0;entryDy=0;endArrow=open;endFill=0;" edge="1" parent="1" source="tC24F0ibOgKhYHNWl2Ua-34" target="tC24F0ibOgKhYHNWl2Ua-6">
          <mxGeometry relative="1" as="geometry" />
        </mxCell>
        <mxCell id="tC24F0ibOgKhYHNWl2Ua-56" style="edgeStyle=entityRelationEdgeStyle;curved=1;orthogonalLoop=1;jettySize=auto;html=1;entryX=0;entryY=0.5;entryDx=0;entryDy=0;startArrow=none;startFill=0;endArrow=open;endFill=0;" edge="1" parent="1" source="tC24F0ibOgKhYHNWl2Ua-34" target="tC24F0ibOgKhYHNWl2Ua-55">
          <mxGeometry relative="1" as="geometry" />
        </mxCell>
        <mxCell id="tC24F0ibOgKhYHNWl2Ua-76" style="edgeStyle=entityRelationEdgeStyle;curved=1;orthogonalLoop=1;jettySize=auto;html=1;entryX=0;entryY=0.5;entryDx=0;entryDy=0;startArrow=none;startFill=0;endArrow=open;endFill=0;" edge="1" parent="1" source="tC24F0ibOgKhYHNWl2Ua-34" target="tC24F0ibOgKhYHNWl2Ua-75">
          <mxGeometry relative="1" as="geometry" />
        </mxCell>
        <mxCell id="tC24F0ibOgKhYHNWl2Ua-34" value="Стример" style="shape=umlActor;verticalLabelPosition=bottom;verticalAlign=top;html=1;outlineConnect=0;labelPosition=center;align=center;" vertex="1" parent="1">
          <mxGeometry x="80" y="925" width="30" height="60" as="geometry" />
        </mxCell>
        <mxCell id="tC24F0ibOgKhYHNWl2Ua-37" value="Функциональные возможности Стримера может получить пользователь после создания канала, при этом пользователь не теряет свои функциональные возможности." style="shape=note;whiteSpace=wrap;html=1;backgroundOutline=1;darkOpacity=0.05;" vertex="1" parent="1">
          <mxGeometry x="-220" y="740" width="220" height="160" as="geometry" />
        </mxCell>
        <mxCell id="tC24F0ibOgKhYHNWl2Ua-38" value="" style="endArrow=none;dashed=1;html=1;curved=1;entryX=0.25;entryY=0.1;entryDx=0;entryDy=0;entryPerimeter=0;exitX=1;exitY=1;exitDx=0;exitDy=0;exitPerimeter=0;" edge="1" parent="1" source="tC24F0ibOgKhYHNWl2Ua-37" target="tC24F0ibOgKhYHNWl2Ua-34">
          <mxGeometry width="50" height="50" relative="1" as="geometry">
            <mxPoint x="-140" y="880" as="sourcePoint" />
            <mxPoint x="-380" y="950" as="targetPoint" />
          </mxGeometry>
        </mxCell>
        <mxCell id="tC24F0ibOgKhYHNWl2Ua-40" value="Заполнить описание жалобы" style="ellipse;whiteSpace=wrap;html=1;" vertex="1" parent="1">
          <mxGeometry x="670" y="620" width="120" height="80" as="geometry" />
        </mxCell>
        <mxCell id="tC24F0ibOgKhYHNWl2Ua-43" value="&amp;lt;&amp;lt;extend&amp;gt;&amp;gt;" style="text;html=1;align=center;verticalAlign=middle;resizable=0;points=[];autosize=1;strokeColor=none;fillColor=none;" vertex="1" parent="1">
          <mxGeometry x="552.5" y="640" width="80" height="20" as="geometry" />
        </mxCell>
        <mxCell id="tC24F0ibOgKhYHNWl2Ua-46" value="Указать причину жалобы" style="ellipse;whiteSpace=wrap;html=1;" vertex="1" parent="1">
          <mxGeometry x="670" y="735" width="120" height="80" as="geometry" />
        </mxCell>
        <mxCell id="tC24F0ibOgKhYHNWl2Ua-48" value="&amp;lt;&amp;lt;include&amp;gt;&amp;gt;" style="text;html=1;align=center;verticalAlign=middle;resizable=0;points=[];autosize=1;strokeColor=none;fillColor=none;" vertex="1" parent="1">
          <mxGeometry x="535" y="725" width="80" height="20" as="geometry" />
        </mxCell>
        <mxCell id="tC24F0ibOgKhYHNWl2Ua-49" value="Ненормативная лексика, спам и т.д.(требует уточнения с заказчиком)" style="shape=note;whiteSpace=wrap;html=1;backgroundOutline=1;darkOpacity=0.05;" vertex="1" parent="1">
          <mxGeometry x="625" y="845" width="210" height="90" as="geometry" />
        </mxCell>
        <mxCell id="tC24F0ibOgKhYHNWl2Ua-50" value="" style="endArrow=none;dashed=1;html=1;curved=1;entryX=0.5;entryY=0;entryDx=0;entryDy=0;entryPerimeter=0;" edge="1" parent="1" source="tC24F0ibOgKhYHNWl2Ua-46" target="tC24F0ibOgKhYHNWl2Ua-49">
          <mxGeometry width="50" height="50" relative="1" as="geometry">
            <mxPoint x="490" y="675" as="sourcePoint" />
            <mxPoint x="540" y="625" as="targetPoint" />
          </mxGeometry>
        </mxCell>
        <mxCell id="tC24F0ibOgKhYHNWl2Ua-51" value="Из-за бизнес сложности действия требует уточнения с заказчиком" style="shape=note;whiteSpace=wrap;html=1;backgroundOutline=1;darkOpacity=0.05;" vertex="1" parent="1">
          <mxGeometry x="387.5" y="470" width="190" height="90" as="geometry" />
        </mxCell>
        <mxCell id="tC24F0ibOgKhYHNWl2Ua-52" value="" style="endArrow=none;dashed=1;html=1;curved=1;entryX=1;entryY=1;entryDx=0;entryDy=0;exitX=0;exitY=0.5;exitDx=0;exitDy=0;exitPerimeter=0;" edge="1" parent="1" source="tC24F0ibOgKhYHNWl2Ua-51" target="tC24F0ibOgKhYHNWl2Ua-14">
          <mxGeometry width="50" height="50" relative="1" as="geometry">
            <mxPoint x="290" y="800" as="sourcePoint" />
            <mxPoint x="340" y="750" as="targetPoint" />
          </mxGeometry>
        </mxCell>
        <mxCell id="tC24F0ibOgKhYHNWl2Ua-55" value="Забанить пользователя на канале" style="ellipse;whiteSpace=wrap;html=1;" vertex="1" parent="1">
          <mxGeometry x="240" y="1200" width="120" height="80" as="geometry" />
        </mxCell>
        <mxCell id="tC24F0ibOgKhYHNWl2Ua-57" value="Только для своего канала" style="shape=note;whiteSpace=wrap;html=1;backgroundOutline=1;darkOpacity=0.05;" vertex="1" parent="1">
          <mxGeometry x="207.5" y="1330" width="180" height="90" as="geometry" />
        </mxCell>
        <mxCell id="tC24F0ibOgKhYHNWl2Ua-58" value="" style="endArrow=none;dashed=1;html=1;curved=1;entryX=0.5;entryY=1;entryDx=0;entryDy=0;exitX=0.5;exitY=0;exitDx=0;exitDy=0;exitPerimeter=0;" edge="1" parent="1" source="tC24F0ibOgKhYHNWl2Ua-57" target="tC24F0ibOgKhYHNWl2Ua-55">
          <mxGeometry width="50" height="50" relative="1" as="geometry">
            <mxPoint x="287.5" y="1330" as="sourcePoint" />
            <mxPoint x="337.5" y="1280" as="targetPoint" />
          </mxGeometry>
        </mxCell>
        <mxCell id="tC24F0ibOgKhYHNWl2Ua-59" value="Сохранить запись стрима на канале" style="ellipse;whiteSpace=wrap;html=1;" vertex="1" parent="1">
          <mxGeometry x="505" y="925" width="120" height="80" as="geometry" />
        </mxCell>
        <mxCell id="tC24F0ibOgKhYHNWl2Ua-61" value="" style="edgeStyle=entityRelationEdgeStyle;curved=1;orthogonalLoop=1;jettySize=auto;html=1;endArrow=none;endFill=0;startArrow=open;startFill=0;dashed=1;entryX=0;entryY=0.5;entryDx=0;entryDy=0;exitX=1;exitY=0.5;exitDx=0;exitDy=0;" edge="1" parent="1" source="tC24F0ibOgKhYHNWl2Ua-7" target="tC24F0ibOgKhYHNWl2Ua-59">
          <mxGeometry relative="1" as="geometry">
            <mxPoint x="365" y="1060" as="sourcePoint" />
            <mxPoint x="499.99999999999955" y="1010" as="targetPoint" />
          </mxGeometry>
        </mxCell>
        <mxCell id="tC24F0ibOgKhYHNWl2Ua-62" value="&amp;lt;&amp;lt;extend&amp;gt;&amp;gt;" style="text;html=1;align=center;verticalAlign=middle;resizable=0;points=[];autosize=1;strokeColor=none;fillColor=none;" vertex="1" parent="1">
          <mxGeometry x="397" y="945" width="80" height="20" as="geometry" />
        </mxCell>
        <mxCell id="tC24F0ibOgKhYHNWl2Ua-64" value="Подписаться на уведомления о выходе стримов и видео" style="ellipse;whiteSpace=wrap;html=1;" vertex="1" parent="1">
          <mxGeometry x="472" y="-30" width="120" height="80" as="geometry" />
        </mxCell>
        <mxCell id="tC24F0ibOgKhYHNWl2Ua-65" value="" style="edgeStyle=entityRelationEdgeStyle;curved=1;orthogonalLoop=1;jettySize=auto;html=1;endArrow=none;endFill=0;startArrow=open;startFill=0;dashed=1;entryX=0;entryY=0.5;entryDx=0;entryDy=0;exitX=1;exitY=0.5;exitDx=0;exitDy=0;" edge="1" parent="1" source="tC24F0ibOgKhYHNWl2Ua-5" target="tC24F0ibOgKhYHNWl2Ua-64">
          <mxGeometry relative="1" as="geometry">
            <mxPoint x="366.99999999999955" y="-1" as="sourcePoint" />
            <mxPoint x="481.99999999999955" y="-1" as="targetPoint" />
          </mxGeometry>
        </mxCell>
        <mxCell id="tC24F0ibOgKhYHNWl2Ua-66" value="&amp;lt;&amp;lt;extend&amp;gt;&amp;gt;" style="text;html=1;align=center;verticalAlign=middle;resizable=0;points=[];autosize=1;strokeColor=none;fillColor=none;" vertex="1" parent="1">
          <mxGeometry x="392" y="-21" width="80" height="20" as="geometry" />
        </mxCell>
        <mxCell id="tC24F0ibOgKhYHNWl2Ua-67" value="Редактирование личный кабинет" style="ellipse;whiteSpace=wrap;html=1;" vertex="1" parent="1">
          <mxGeometry x="235" y="-230" width="120" height="80" as="geometry" />
        </mxCell>
        <mxCell id="tC24F0ibOgKhYHNWl2Ua-68" value="Просмотр список рейтинга стримеров" style="ellipse;whiteSpace=wrap;html=1;" vertex="1" parent="1">
          <mxGeometry x="235" y="-130" width="120" height="80" as="geometry" />
        </mxCell>
        <mxCell id="tC24F0ibOgKhYHNWl2Ua-71" value="Добавлено по пожеланию заказчика. Требуется дополнительные уточнения с заказчиком" style="shape=note;whiteSpace=wrap;html=1;backgroundOutline=1;darkOpacity=0.05;" vertex="1" parent="1">
          <mxGeometry x="410" y="-320" width="210" height="90" as="geometry" />
        </mxCell>
        <mxCell id="tC24F0ibOgKhYHNWl2Ua-73" value="" style="endArrow=none;dashed=1;html=1;curved=1;entryX=1;entryY=0.5;entryDx=0;entryDy=0;exitX=0;exitY=1;exitDx=0;exitDy=0;exitPerimeter=0;" edge="1" parent="1" source="tC24F0ibOgKhYHNWl2Ua-71" target="tC24F0ibOgKhYHNWl2Ua-67">
          <mxGeometry width="50" height="50" relative="1" as="geometry">
            <mxPoint x="290" y="100" as="sourcePoint" />
            <mxPoint x="340" y="50" as="targetPoint" />
          </mxGeometry>
        </mxCell>
        <mxCell id="tC24F0ibOgKhYHNWl2Ua-74" value="" style="endArrow=none;dashed=1;html=1;curved=1;entryX=1;entryY=0.5;entryDx=0;entryDy=0;exitX=0.5;exitY=1;exitDx=0;exitDy=0;exitPerimeter=0;" edge="1" parent="1" source="tC24F0ibOgKhYHNWl2Ua-71" target="tC24F0ibOgKhYHNWl2Ua-68">
          <mxGeometry width="50" height="50" relative="1" as="geometry">
            <mxPoint x="409.99999999999955" y="-135" as="sourcePoint" />
            <mxPoint x="364.99999999999955" y="-180" as="targetPoint" />
          </mxGeometry>
        </mxCell>
        <mxCell id="tC24F0ibOgKhYHNWl2Ua-75" value="Запустить рестрим другого стрима на канале" style="ellipse;whiteSpace=wrap;html=1;" vertex="1" parent="1">
          <mxGeometry x="235" y="795" width="120" height="80" as="geometry" />
        </mxCell>
        <mxCell id="tC24F0ibOgKhYHNWl2Ua-77" value="Добавлено по пожеланию заказчика. Требуется дополнительные уточнения с заказчиком" style="shape=note;whiteSpace=wrap;html=1;backgroundOutline=1;darkOpacity=0.05;" vertex="1" parent="1">
          <mxGeometry x="382" y="790" width="210" height="90" as="geometry" />
        </mxCell>
        <mxCell id="tC24F0ibOgKhYHNWl2Ua-78" value="" style="endArrow=none;dashed=1;html=1;curved=1;entryX=1;entryY=0.5;entryDx=0;entryDy=0;exitX=0;exitY=0.5;exitDx=0;exitDy=0;exitPerimeter=0;" edge="1" parent="1" source="tC24F0ibOgKhYHNWl2Ua-77" target="tC24F0ibOgKhYHNWl2Ua-75">
          <mxGeometry width="50" height="50" relative="1" as="geometry">
            <mxPoint x="285" y="825" as="sourcePoint" />
            <mxPoint x="335" y="775" as="targetPoint" />
          </mxGeometry>
        </mxCell>
        <mxCell id="tC24F0ibOgKhYHNWl2Ua-83" value="Поиск видео/стрима" style="ellipse;whiteSpace=wrap;html=1;" vertex="1" parent="1">
          <mxGeometry x="230" y="-390" width="120" height="80" as="geometry" />
        </mxCell>
        <mxCell id="tC24F0ibOgKhYHNWl2Ua-84" value="Настройка фильтрации поиска" style="ellipse;whiteSpace=wrap;html=1;" vertex="1" parent="1">
          <mxGeometry x="460" y="-420" width="120" height="80" as="geometry" />
        </mxCell>
        <mxCell id="tC24F0ibOgKhYHNWl2Ua-86" value="" style="edgeStyle=entityRelationEdgeStyle;curved=1;orthogonalLoop=1;jettySize=auto;html=1;endArrow=none;endFill=0;startArrow=open;startFill=0;dashed=1;entryX=0;entryY=0.5;entryDx=0;entryDy=0;exitX=1;exitY=0.5;exitDx=0;exitDy=0;" edge="1" parent="1" source="tC24F0ibOgKhYHNWl2Ua-83" target="tC24F0ibOgKhYHNWl2Ua-84">
          <mxGeometry relative="1" as="geometry">
            <mxPoint x="319.99999999999955" y="-419" as="sourcePoint" />
            <mxPoint x="437" y="-419" as="targetPoint" />
          </mxGeometry>
        </mxCell>
        <mxCell id="tC24F0ibOgKhYHNWl2Ua-87" value="&amp;lt;&amp;lt;extend&amp;gt;&amp;gt;" style="text;html=1;align=center;verticalAlign=middle;resizable=0;points=[];autosize=1;strokeColor=none;fillColor=none;" vertex="1" parent="1">
          <mxGeometry x="369.5" y="-400" width="80" height="20" as="geometry" />
        </mxCell>
        <mxCell id="tC24F0ibOgKhYHNWl2Ua-88" value="Требуется дополнительные уточнения с заказчиком" style="shape=note;whiteSpace=wrap;html=1;backgroundOutline=1;darkOpacity=0.05;" vertex="1" parent="1">
          <mxGeometry x="640" y="-480" width="210" height="90" as="geometry" />
        </mxCell>
        <mxCell id="tC24F0ibOgKhYHNWl2Ua-89" value="" style="endArrow=none;dashed=1;html=1;curved=1;entryX=1;entryY=0.5;entryDx=0;entryDy=0;exitX=0;exitY=0.5;exitDx=0;exitDy=0;exitPerimeter=0;" edge="1" parent="1" source="tC24F0ibOgKhYHNWl2Ua-88" target="tC24F0ibOgKhYHNWl2Ua-84">
          <mxGeometry width="50" height="50" relative="1" as="geometry">
            <mxPoint x="679.9999999999995" y="-490" as="sourcePoint" />
            <mxPoint x="519.9999999999995" y="-350" as="targetPoint" />
          </mxGeometry>
        </mxCell>
        <mxCell id="tC24F0ibOgKhYHNWl2Ua-91" value="Указать дополнительную информацию" style="ellipse;whiteSpace=wrap;html=1;" vertex="1" parent="1">
          <mxGeometry x="472" y="80" width="120" height="80" as="geometry" />
        </mxCell>
        <mxCell id="tC24F0ibOgKhYHNWl2Ua-94" value="" style="edgeStyle=entityRelationEdgeStyle;curved=1;orthogonalLoop=1;jettySize=auto;html=1;dashed=1;startArrow=none;startFill=0;endArrow=open;endFill=0;exitX=1;exitY=0.5;exitDx=0;exitDy=0;entryX=0;entryY=0.5;entryDx=0;entryDy=0;" edge="1" parent="1" source="tC24F0ibOgKhYHNWl2Ua-4" target="tC24F0ibOgKhYHNWl2Ua-91">
          <mxGeometry relative="1" as="geometry">
            <mxPoint x="299.99999999999955" y="160" as="sourcePoint" />
            <mxPoint x="619.9999999999995" y="215" as="targetPoint" />
          </mxGeometry>
        </mxCell>
        <mxCell id="tC24F0ibOgKhYHNWl2Ua-95" value="&amp;lt;&amp;lt;include&amp;gt;&amp;gt;" style="text;html=1;align=center;verticalAlign=middle;resizable=0;points=[];autosize=1;strokeColor=none;fillColor=none;" vertex="1" parent="1">
          <mxGeometry x="380" y="90" width="80" height="20" as="geometry" />
        </mxCell>
        <mxCell id="tC24F0ibOgKhYHNWl2Ua-96" value="Имеется ввиду описание, ссылки на спонсоров, категория канала. Возможно, нужны дополнительные уточнения с заказчиком" style="shape=note;whiteSpace=wrap;html=1;backgroundOutline=1;darkOpacity=0.05;" vertex="1" parent="1">
          <mxGeometry x="640" y="60" width="210" height="100" as="geometry" />
        </mxCell>
        <mxCell id="tC24F0ibOgKhYHNWl2Ua-98" value="" style="endArrow=none;dashed=1;html=1;curved=1;entryX=1;entryY=0.5;entryDx=0;entryDy=0;exitX=-0.011;exitY=0.6;exitDx=0;exitDy=0;exitPerimeter=0;" edge="1" parent="1" source="tC24F0ibOgKhYHNWl2Ua-96" target="tC24F0ibOgKhYHNWl2Ua-91">
          <mxGeometry width="50" height="50" relative="1" as="geometry">
            <mxPoint x="649.9999999999995" y="-425" as="sourcePoint" />
            <mxPoint x="589.9999999999995" y="-370" as="targetPoint" />
            <Array as="points">
              <mxPoint x="620" y="115" />
            </Array>
          </mxGeometry>
        </mxCell>
        <mxCell id="tC24F0ibOgKhYHNWl2Ua-99" value="Требуется дополнительные уточнения с заказчиком" style="shape=note;whiteSpace=wrap;html=1;backgroundOutline=1;darkOpacity=0.05;" vertex="1" parent="1">
          <mxGeometry x="449.5" y="180" width="210" height="90" as="geometry" />
        </mxCell>
        <mxCell id="tC24F0ibOgKhYHNWl2Ua-102" value="" style="endArrow=none;dashed=1;html=1;curved=1;entryX=1;entryY=0.5;entryDx=0;entryDy=0;exitX=0;exitY=0.5;exitDx=0;exitDy=0;exitPerimeter=0;" edge="1" parent="1" source="tC24F0ibOgKhYHNWl2Ua-99" target="tC24F0ibOgKhYHNWl2Ua-12">
          <mxGeometry width="50" height="50" relative="1" as="geometry">
            <mxPoint x="439.49999999999955" y="200" as="sourcePoint" />
            <mxPoint x="379.49999999999955" y="255" as="targetPoint" />
          </mxGeometry>
        </mxCell>
        <mxCell id="tC24F0ibOgKhYHNWl2Ua-103" value="Отправить письмо на почту с причиной бана" style="ellipse;whiteSpace=wrap;html=1;" vertex="1" parent="1">
          <mxGeometry x="512.5" y="1270" width="120" height="80" as="geometry" />
        </mxCell>
        <mxCell id="tC24F0ibOgKhYHNWl2Ua-104" value="" style="edgeStyle=entityRelationEdgeStyle;curved=1;orthogonalLoop=1;jettySize=auto;html=1;dashed=1;startArrow=none;startFill=0;endArrow=open;endFill=0;exitX=1;exitY=0.5;exitDx=0;exitDy=0;entryX=0;entryY=0.5;entryDx=0;entryDy=0;" edge="1" parent="1" source="tC24F0ibOgKhYHNWl2Ua-55" target="tC24F0ibOgKhYHNWl2Ua-103">
          <mxGeometry relative="1" as="geometry">
            <mxPoint x="387.49999999999955" y="1240" as="sourcePoint" />
            <mxPoint x="707.4999999999995" y="1295" as="targetPoint" />
          </mxGeometry>
        </mxCell>
        <mxCell id="tC24F0ibOgKhYHNWl2Ua-105" value="&amp;lt;&amp;lt;include&amp;gt;&amp;gt;" style="text;html=1;align=center;verticalAlign=middle;resizable=0;points=[];autosize=1;strokeColor=none;fillColor=none;" vertex="1" parent="1">
          <mxGeometry x="399.5" y="1245" width="80" height="20" as="geometry" />
        </mxCell>
        <mxCell id="tC24F0ibOgKhYHNWl2Ua-106" value="" style="edgeStyle=entityRelationEdgeStyle;curved=1;orthogonalLoop=1;jettySize=auto;html=1;dashed=1;startArrow=none;startFill=0;endArrow=open;endFill=0;exitX=1;exitY=0.5;exitDx=0;exitDy=0;entryX=0;entryY=1;entryDx=0;entryDy=0;" edge="1" parent="1" source="tC24F0ibOgKhYHNWl2Ua-22" target="tC24F0ibOgKhYHNWl2Ua-103">
          <mxGeometry relative="1" as="geometry">
            <mxPoint x="360.0000000000082" y="1170" as="sourcePoint" />
            <mxPoint x="500" y="1260" as="targetPoint" />
          </mxGeometry>
        </mxCell>
        <mxCell id="tC24F0ibOgKhYHNWl2Ua-107" value="&amp;lt;&amp;lt;include&amp;gt;&amp;gt;" style="text;html=1;align=center;verticalAlign=middle;resizable=0;points=[];autosize=1;strokeColor=none;fillColor=none;" vertex="1" parent="1">
          <mxGeometry x="417.5" y="1360" width="80" height="20" as="geometry" />
        </mxCell>
        <mxCell id="tC24F0ibOgKhYHNWl2Ua-108" value="Указать дополнительную информацию" style="ellipse;whiteSpace=wrap;html=1;" vertex="1" parent="1">
          <mxGeometry x="490" y="1030" width="120" height="80" as="geometry" />
        </mxCell>
        <mxCell id="tC24F0ibOgKhYHNWl2Ua-111" value="" style="edgeStyle=entityRelationEdgeStyle;curved=1;orthogonalLoop=1;jettySize=auto;html=1;dashed=1;startArrow=none;startFill=0;endArrow=open;endFill=0;exitX=1;exitY=1;exitDx=0;exitDy=0;entryX=0;entryY=0.5;entryDx=0;entryDy=0;" edge="1" parent="1" source="tC24F0ibOgKhYHNWl2Ua-7" target="tC24F0ibOgKhYHNWl2Ua-108">
          <mxGeometry relative="1" as="geometry">
            <mxPoint x="350.0000000000082" y="970" as="sourcePoint" />
            <mxPoint x="504.99999999999955" y="1040" as="targetPoint" />
          </mxGeometry>
        </mxCell>
        <mxCell id="tC24F0ibOgKhYHNWl2Ua-112" value="&amp;lt;&amp;lt;include&amp;gt;&amp;gt;" style="text;html=1;align=center;verticalAlign=middle;resizable=0;points=[];autosize=1;strokeColor=none;fillColor=none;" vertex="1" parent="1">
          <mxGeometry x="397" y="1000" width="80" height="20" as="geometry" />
        </mxCell>
        <mxCell id="tC24F0ibOgKhYHNWl2Ua-113" value="" style="edgeStyle=entityRelationEdgeStyle;curved=1;orthogonalLoop=1;jettySize=auto;html=1;dashed=1;startArrow=none;startFill=0;endArrow=open;endFill=0;exitX=1;exitY=0.5;exitDx=0;exitDy=0;entryX=0;entryY=1;entryDx=0;entryDy=0;" edge="1" parent="1" source="tC24F0ibOgKhYHNWl2Ua-6" target="tC24F0ibOgKhYHNWl2Ua-108">
          <mxGeometry relative="1" as="geometry">
            <mxPoint x="360.0000000000082" y="980" as="sourcePoint" />
            <mxPoint x="500" y="1050" as="targetPoint" />
          </mxGeometry>
        </mxCell>
        <mxCell id="tC24F0ibOgKhYHNWl2Ua-114" value="&amp;lt;&amp;lt;include&amp;gt;&amp;gt;" style="text;html=1;align=center;verticalAlign=middle;resizable=0;points=[];autosize=1;strokeColor=none;fillColor=none;" vertex="1" parent="1">
          <mxGeometry x="380" y="1080" width="80" height="20" as="geometry" />
        </mxCell>
        <mxCell id="tC24F0ibOgKhYHNWl2Ua-117" value="В виде текста" style="shape=note;whiteSpace=wrap;html=1;backgroundOutline=1;darkOpacity=0.05;" vertex="1" parent="1">
          <mxGeometry x="625" y="480" width="210" height="90" as="geometry" />
        </mxCell>
        <mxCell id="tC24F0ibOgKhYHNWl2Ua-119" value="" style="endArrow=none;dashed=1;html=1;curved=1;exitX=0.5;exitY=0;exitDx=0;exitDy=0;entryX=0.5;entryY=1;entryDx=0;entryDy=0;entryPerimeter=0;" edge="1" parent="1" source="tC24F0ibOgKhYHNWl2Ua-40" target="tC24F0ibOgKhYHNWl2Ua-117">
          <mxGeometry width="50" height="50" relative="1" as="geometry">
            <mxPoint x="210" y="760" as="sourcePoint" />
            <mxPoint x="260" y="710" as="targetPoint" />
          </mxGeometry>
        </mxCell>
      </root>
    </mxGraphModel>
  </diagram>
</mxfile>
